<svg width="12" height="12" viewBox="0 0 12 12" fill="none" xmlns="http://www.w3.org/2000/svg">
<path fill-rule="evenodd" clip-rule="evenodd" d="M6 12C9.31371 12 12 9.31371 12 6C12 2.68629 9.31371 0 6 0C2.68629 0 0 2.68629 0 6C0 9.31371 2.68629 12 6 12ZM8.93309 3.24986C9.07109 3.01067 8.98905 2.7049 8.74986 2.56691C8.51067 2.42891 8.2049 2.51095 8.06691 2.75014L5.09883 7.8948L3.95773 5.2988C3.84661 5.046 3.5516 4.93115 3.2988 5.04227C3.046 5.15339 2.93115 5.4484 3.04227 5.7012L4.58073 9.2012C4.65657 9.37374 4.823 9.48898 5.01119 9.49926C5.19938 9.50954 5.37737 9.41312 5.47155 9.24986L8.93309 3.24986Z" fill="#4C40F8"/>
</svg>
