<svg width="30" height="30" viewBox="0 0 30 30" fill="none" xmlns="http://www.w3.org/2000/svg">
<rect width="30" height="30" rx="5" fill="#4C40F8"/>
<path d="M12.9798 19.8636V19.7358C12.9941 18.3793 13.1361 17.2997 13.406 16.4972C13.6759 15.6946 14.0594 15.0447 14.5566 14.5476C15.0537 14.0504 15.6503 13.5923 16.3463 13.1733C16.7654 12.9176 17.1418 12.6158 17.4756 12.2678C17.8094 11.9126 18.0722 11.5043 18.2639 11.0426C18.4628 10.581 18.5622 10.0696 18.5622 9.50852C18.5622 8.8125 18.3989 8.20881 18.0722 7.69744C17.7455 7.18608 17.3087 6.7919 16.7618 6.51491C16.2149 6.23793 15.6077 6.09943 14.9401 6.09943C14.3577 6.09943 13.7966 6.22017 13.2568 6.46165C12.7171 6.70312 12.2661 7.0831 11.9039 7.60156C11.5416 8.12003 11.3321 8.79829 11.2753 9.63636H8.59064C8.64746 8.42898 8.95996 7.3956 9.52814 6.53622C10.1034 5.67685 10.8598 5.01989 11.7973 4.56534C12.7419 4.11079 13.7895 3.88352 14.9401 3.88352C16.1901 3.88352 17.2767 4.1321 18.2 4.62926C19.1304 5.12642 19.8477 5.80824 20.352 6.67471C20.8634 7.54119 21.1191 8.52841 21.1191 9.63636C21.1191 10.4176 20.9983 11.1243 20.7568 11.7564C20.5225 12.3885 20.1816 12.9531 19.7341 13.4503C19.2938 13.9474 18.7611 14.3878 18.1361 14.7713C17.5111 15.1619 17.0104 15.5739 16.634 16.0071C16.2575 16.4332 15.9841 16.9411 15.8137 17.5305C15.6432 18.12 15.5509 18.8551 15.5367 19.7358V19.8636H12.9798ZM14.3435 26.1705C13.8179 26.1705 13.3669 25.9822 12.9905 25.6058C12.6141 25.2294 12.4259 24.7784 12.4259 24.2528C12.4259 23.7273 12.6141 23.2763 12.9905 22.8999C13.3669 22.5234 13.8179 22.3352 14.3435 22.3352C14.8691 22.3352 15.32 22.5234 15.6965 22.8999C16.0729 23.2763 16.2611 23.7273 16.2611 24.2528C16.2611 24.6009 16.1723 24.9205 15.9948 25.2116C15.8243 25.5028 15.5935 25.7372 15.3023 25.9148C15.0182 26.0852 14.6986 26.1705 14.3435 26.1705Z" fill="white"/>
</svg>
