<svg width="50" height="61" viewBox="0 0 50 61" fill="none" xmlns="http://www.w3.org/2000/svg">
<mask id="mask0_35_35" style="mask-type:alpha" maskUnits="userSpaceOnUse" x="0" y="0" width="50" height="61">
<path d="M31.5237 36L34.5237 36.6667M31.5237 36L20.5237 42.875M31.5237 36L31.0237 29M14.4925 36.6667L16.5237 42C17.4295 43.531 18.1196 43.7415 19.5237 43.5L20.5237 42.875M14.4925 36.6667L18.0237 36M14.4925 36.6667L6.99248 38C2.31007 39.4312 0.785787 42.8866 1.02367 49.5V57C1.35121 58.6253 3.52367 59.5 3.52367 59.5H8.02367M18.0237 36L28.5237 42.4616M18.0237 36V29M34.5237 36.6667L40.5237 38C45.5866 39.1911 47.1112 40.9288 48.0237 45.5V57C47.3939 58.7655 46.8898 59.5352 45.0237 59.5H40.5237M34.5237 36.6667L33.0237 42C32.3455 43.5592 31.4389 44.012 30.5237 44L28.5237 42.4616M20.5237 59.5L23.0237 46.5M20.5237 59.5H28.5237M20.5237 59.5H8.02367M23.0237 46.5H26.0237M23.0237 46.5L20.5237 42.875M26.0237 46.5L28.5237 59.5M26.0237 46.5L28.5237 42.4616M28.5237 59.5H40.5237M40.5237 55V59.5M8.02367 55V59.5M18.0237 29C15.5297 26.3477 14.875 24.381 14.4925 21M18.0237 29C20.4595 30.1345 21.9537 30.618 25.0237 31C27.6542 30.7878 28.983 30.3808 31.0237 29M14.4925 21C12.5104 21.11 11.6371 20.7883 11.0237 18.5C10.9228 16.081 11.4445 15.1698 13.0618 15M14.4925 21V15M14.4925 15C16.4474 14.8487 16.7831 13.585 16.5237 10C17.5921 8.79316 19.2557 8.8437 24.5237 10.5C26.6158 10.5478 27.9075 9.85656 30.4925 9C32.1852 8.19906 32.7325 9.31913 33.4925 11C34.0845 14.8328 34.0447 15.4909 35.4925 15M14.4925 15C13.9417 14.9615 13.4674 14.9575 13.0618 15M31.0237 29C33.6904 26.4889 34.7895 24.8138 35.5237 21M35.5237 21L35.4925 15M35.5237 21C37.8854 20.7475 38.7139 20.2269 38.4925 18C38.6313 15.4694 37.7138 15.0829 35.4925 15M13.0618 15V6.5C13.8898 4.28248 14.5248 3.38033 16.5237 3.5C17.7556 3.84991 18.4144 3.35023 19.5237 1H31.9925C35.6347 1.8513 36.6948 3.51809 36.9925 6.5V15M33.0237 47V51H40.5237V47H33.0237Z" stroke="white" stroke-width="2" stroke-linejoin="round"/>
</mask>
<g mask="url(#mask0_35_35)">
<rect x="-5" y="-18" width="63" height="79" fill="#4C40F8"/>
</g>
</svg>
