<svg width="30" height="30" viewBox="0 0 30 30" fill="none" xmlns="http://www.w3.org/2000/svg">
<rect width="30" height="30" rx="5" fill="#4C40F8"/>
<path d="M14.9277 5L3 9.33735L14.9277 13.3133L26.1325 9.57831L26.8554 9.33735L14.9277 5Z" fill="white"/>
<path d="M7.33735 20.4578V12.8675L14.9277 15.3976L22.5181 12.8675V20.4578C16.4304 22.8031 13.1138 22.6958 7.33735 20.4578Z" fill="white"/>
<path d="M26.1325 9.57831L26.8554 9.33735L14.9277 5L3 9.33735L14.9277 13.3133L26.1325 9.57831ZM26.1325 9.57831V16.5663M7.33735 12.8675V20.4578C13.1138 22.6958 16.4304 22.8031 22.5181 20.4578V12.8675L14.9277 15.3976L7.33735 12.8675Z" stroke="white" stroke-linecap="round"/>
<path d="M25.0482 23.7952C25.2887 21.9066 25.7711 20.1807 25.7711 20.1807H26.494C26.8124 21.3934 26.8327 22.2508 26.8554 23.7952H25.0482Z" fill="white" stroke="white" stroke-linecap="round"/>
<circle cx="26.0964" cy="18.3374" r="0.903614" fill="white"/>
</svg>
