<svg width="51" height="63" viewBox="0 0 51 63" fill="none" xmlns="http://www.w3.org/2000/svg">
<mask id="mask0_32_25" style="mask-type:alpha" maskUnits="userSpaceOnUse" x="0" y="0" width="51" height="63">
<mask id="mask1_32_25" style="mask-type:alpha" maskUnits="userSpaceOnUse" x="0" y="0" width="51" height="63">
<path d="M3.50355 62C-0.265154 49.3249 2.423 44.1826 18.8013 39.7487M18.8013 39.7487L25.7549 54.0034L32.3607 39.7487M18.8013 39.7487L19.9949 33.2982M32.3607 39.7487C45.7537 42.0263 49.4217 46.623 47.6585 62M32.3607 39.7487L30.97 33.2982M10.1094 40.7917C7.93265 37.8133 7.60044 31.4803 8.37103 12.9776C11.6651 6.76415 13.5644 4.60043 17.0629 3.24262C24.7812 1.6205 28.4135 1.55144 33.4038 3.24262C38.3712 5.60849 40.8207 7.474 43.8341 12.9776C44.3257 26.5633 44.41 33.1198 43.8341 40.7917M32.3607 57.1325H40.705M30.97 33.2982C29.3626 34.637 27.7808 35.1862 25.7549 35.5766C23.0819 35.1519 21.3031 34.4839 19.9949 33.2982M30.97 33.2982C32.5385 31.9917 34.1314 29.9333 36.1852 26.537C36.1852 26.537 36.1852 20.9741 36.1852 17.4974C36.1852 14.0206 35.9116 12.1966 33.4038 10.1962C29.9735 12.451 28.2336 13.4003 25.7549 14.0206C20.8751 13.7114 17.0629 15.4113 17.0629 15.4113C16.5027 20.6784 16.4677 23.4409 17.0629 27.9277C17.8523 30.4155 18.6892 32.1147 19.9949 33.2982" stroke="black" stroke-width="4"/>
</mask>
<g mask="url(#mask1_32_25)">
<circle cx="25.4962" cy="32.8676" r="39.1604" fill="url(#paint0_linear_32_25)"/>
</g>
</mask>
<g mask="url(#mask0_32_25)">
<rect x="-21" y="-66" width="149" height="173" fill="#4C40F8"/>
</g>
<defs>
<linearGradient id="paint0_linear_32_25" x1="14.2376" y1="-6.29279" x2="42.1394" y2="69.0909" gradientUnits="userSpaceOnUse">
<stop stop-color="#0093E9"/>
<stop offset="1" stop-color="#80D0C7"/>
</linearGradient>
</defs>
</svg>
