<svg width="30" height="49" viewBox="0 0 30 49" fill="none" xmlns="http://www.w3.org/2000/svg">
<mask id="mask0_5_161" style="mask-type:alpha" maskUnits="userSpaceOnUse" x="0" y="0" width="30" height="49">
<path fill-rule="evenodd" clip-rule="evenodd" d="M14.6259 9.73954C17.6826 9.73954 20.1606 7.55927 20.1606 4.86977C20.1606 2.18027 17.6826 0 14.6259 0C11.5692 0 9.09128 2.18027 9.09128 4.86977C9.09128 7.55927 11.5692 9.73954 14.6259 9.73954ZM21.5955 10.8217H8.27134L0.0718529 22.5452C-0.0937423 23.4429 0.0204193 23.8234 0.481828 24.3489C1.13571 24.5835 1.54092 24.579 2.32671 24.3489L8.27134 18.0362L7.86137 46.5334C8.24336 47.6058 8.68832 48.0044 9.91124 48.337C11.0923 48.3791 11.6277 47.9729 12.3711 46.5334L14.421 29.7597H15.2409L17.4958 46.5334C18.0793 47.703 18.5565 48.1238 19.7506 48.337C21.0081 48.2251 21.5556 47.8482 22.2105 46.5334L21.5955 18.0362L27.1302 24.3489L27.5402 47.6155C27.5402 47.6155 28.0049 48.0153 28.3601 47.9763C28.6465 47.9448 28.9751 47.6155 28.9751 47.6155V24.7096L29.59 24.3489L30 23.8078L29.59 22.5452L21.5955 10.8217Z" fill="#D9D9D9"/>
</mask>
<g mask="url(#mask0_5_161)">
<circle cx="17.5232" cy="25.9827" r="26.5869" fill="url(#paint0_linear_5_161)"/>
</g>
<defs>
<linearGradient id="paint0_linear_5_161" x1="9.87947" y1="-0.604248" x2="28.8227" y2="50.5756" gradientUnits="userSpaceOnUse">
<stop stop-color="#0093E9"/>
<stop offset="1" stop-color="#80D0C7"/>
</linearGradient>
</defs>
</svg>
