<svg width="36" height="50" viewBox="0 0 36 50" fill="none" xmlns="http://www.w3.org/2000/svg">
<path fill-rule="evenodd" clip-rule="evenodd" d="M24.2218 0H5C2.23858 0 0 2.23858 0 5V45C0 47.7614 2.23858 50 5 50H31C33.7614 50 36 47.7614 36 45V11.7782L24.2218 0ZM4 25C4 24.4477 4.44772 24 5 24H28C28.5523 24 29 24.4477 29 25C29 25.5523 28.5523 26 28 26H5C4.44772 26 4 25.5523 4 25ZM16 18C15.4477 18 15 18.4477 15 19C15 19.5523 15.4477 20 16 20H29C29.5523 20 30 19.5523 30 19C30 18.4477 29.5523 18 29 18H16ZM4 37C4 36.4477 4.44772 36 5 36H28C28.5523 36 29 36.4477 29 37C29 37.5523 28.5523 38 28 38H5C4.44772 38 4 37.5523 4 37ZM5 30C4.44772 30 4 30.4477 4 31C4 31.5523 4.44772 32 5 32H28C28.5523 32 29 31.5523 29 31C29 30.4477 28.5523 30 28 30H5ZM4 43C4 42.4477 4.44772 42 5 42H18C18.5523 42 19 42.4477 19 43C19 43.5523 18.5523 44 18 44H5C4.44772 44 4 43.5523 4 43ZM25.2181 10.4493C25.2678 10.9181 25.6382 11.2886 26.1071 11.3383L30.7962 11.8354C31.7337 11.9348 32.2754 10.8005 31.6087 10.1339L26.4225 4.94762C25.7559 4.28099 24.6216 4.82265 24.721 5.76016L25.2181 10.4493ZM8 7C8.55228 7 9 7.44772 9 8V9H11C11.5523 9 12 9.44772 12 10C12 10.5523 11.5523 11 11 11H7.4084C7.26447 11.1553 7.18872 11.2691 7.14085 11.3665C7.07978 11.4906 7.03325 11.65 7.00659 11.9508C7.08627 12.3792 7.17542 12.5603 7.25389 12.6639C7.32141 12.753 7.43647 12.8583 7.72145 13H9.5H10.0468L10.3419 13.4604C10.8614 14.2708 11.2207 15.0626 11.2216 15.9556C11.2225 16.8393 10.8714 17.655 10.3583 18.5132L10.0672 19H9.5H9V20C9 20.5523 8.55228 21 8 21C7.44772 21 7 20.5523 7 20V19H5C4.44772 19 4 18.5523 4 18C4 17.4477 4.44772 17 5 17H8H8.91135C9.14704 16.5304 9.22187 16.2159 9.22161 15.9576C9.22136 15.7096 9.15165 15.4207 8.92938 15H7.5H7.28913L7.09622 14.9149C6.54723 14.6726 6.03948 14.3729 5.65978 13.8717C5.2848 13.3768 5.11781 12.7946 5.0134 12.1631L4.99465 12.0498L5.0021 11.9352C5.03473 11.4331 5.11413 10.9555 5.34626 10.4836C5.57532 10.018 5.91328 9.63915 6.32471 9.26245L6.61135 9H7V8C7 7.44772 7.44772 7 8 7Z" fill="#5C5C5C"/>
</svg>
