<svg width="36" height="50" viewBox="0 0 36 50" fill="none" xmlns="http://www.w3.org/2000/svg">
<path fill-rule="evenodd" clip-rule="evenodd" d="M5 0H24.2218L36 11.7782V45C36 47.7614 33.7614 50 31 50H5C2.23857 50 0 47.7614 0 45V5C0 2.23859 2.23857 0 5 0ZM24.2181 9.4491C24.2678 9.91797 24.6382 10.2884 25.1071 10.3381L29.7962 10.8353C30.7337 10.9346 31.2754 9.80035 30.6087 9.13373L25.4225 3.94751C24.7559 3.28088 23.6216 3.82251 23.721 4.76001L24.2181 9.4491ZM12 20C12 19.4477 12.4477 19 13 19H31C31.5523 19 32 19.4477 32 20C32 20.5523 31.5523 21 31 21H13C12.4477 21 12 20.5523 12 20ZM13 28C12.4477 28 12 28.4477 12 29C12 29.5523 12.4477 30 13 30H31C31.5523 30 32 29.5523 32 29C32 28.4477 31.5523 28 31 28H13ZM12 38C12 37.4477 12.4477 37 13 37H31C31.5523 37 32 37.4477 32 38C32 38.5523 31.5523 39 31 39H13C12.4477 39 12 38.5523 12 38ZM12.7856 13.6187C13.1273 13.1848 13.0526 12.556 12.6187 12.2144C12.1848 11.8727 11.5561 11.9474 11.2144 12.3813L5.67326 19.4176L3.7643 17.1552C3.40814 16.733 2.77724 16.6796 2.35513 17.0357C1.93303 17.3918 1.87956 18.0228 2.2357 18.4449L4.93571 21.6449L5.72673 22.5824L6.48564 21.6187L12.7856 13.6187ZM3 26H10V33H3V26ZM10 35H3V42H10V35Z" fill="#5C5C5C"/>
</svg>
