<svg width="64" height="72" viewBox="0 0 64 72" fill="none" xmlns="http://www.w3.org/2000/svg">
<mask id="mask0_8_21" style="mask-type:alpha" maskUnits="userSpaceOnUse" x="0" y="11" width="60" height="58">
<path fill-rule="evenodd" clip-rule="evenodd" d="M0.93699 15.9587L8.90289 16.0241L18.0912 52.8763L21.9724 51.9086L12.4092 13.553L12.0344 12.0496L10.4851 12.0369L0.969822 11.9588L0.93699 15.9587ZM49.509 18.8402L24.3951 25.1018L30.5129 49.6388L55.6267 43.3772L49.509 18.8402ZM23.4274 21.2206C21.2839 21.755 19.9795 23.9259 20.5139 26.0695L26.6317 50.6065C27.1662 52.75 29.3371 54.0544 31.4806 53.52L56.5944 47.2584C58.7379 46.724 60.0424 44.5531 59.5079 42.4096L53.3901 17.8725C52.8557 15.729 50.6848 14.4246 48.5413 14.959L23.4274 21.2206ZM58.4515 55.3722L32.9296 61.1229L32.0503 57.2208L57.5722 51.4701L58.4515 55.3722ZM23.4509 64.8774C24.4929 64.6177 25.1269 63.5624 24.8671 62.5205C24.6074 61.4786 23.5521 60.8445 22.5102 61.1043C21.4683 61.3641 20.8342 62.4193 21.094 63.4613C21.3538 64.5032 22.409 65.1372 23.4509 64.8774ZM24.4186 68.7586C27.6041 67.9644 29.5425 64.7383 28.7483 61.5528C27.9541 58.3674 24.7279 56.4289 21.5425 57.2231C18.3571 58.0173 16.4186 61.2435 17.2128 64.4289C18.007 67.6144 21.2332 69.5528 24.4186 68.7586ZM38.3458 26.6876L36.7625 25.9488L35.8177 27.4185L31.3177 34.4185L34.6824 36.5815L36.711 33.4259L39.064 42.5019L42.936 41.4981L40.5015 32.1077L44.1542 33.8124L45.8458 30.1876L38.3458 26.6876Z" fill="black"/>
</mask>
<g mask="url(#mask0_8_21)">
<circle cx="31.5" cy="32.5" r="42.5" fill="url(#paint0_linear_8_21)"/>
</g>
<defs>
<linearGradient id="paint0_linear_8_21" x1="19.2813" y1="-10" x2="49.5625" y2="71.8125" gradientUnits="userSpaceOnUse">
<stop stop-color="#0093E9"/>
<stop offset="1" stop-color="#80D0C7"/>
</linearGradient>
</defs>
</svg>
