<svg width="30" height="47" viewBox="0 0 30 47" fill="none" xmlns="http://www.w3.org/2000/svg">
<mask id="mask0_5_134" style="mask-type:alpha" maskUnits="userSpaceOnUse" x="0" y="0" width="30" height="47">
<path d="M5.36469 46.2769H30L29.5886 40.7923C29.5927 38.9057 29.3275 37.6289 27.8518 34.5306C26.5452 32.2578 25.2563 31.2378 21.773 29.96C22.2094 29.6782 22.4332 29.3618 22.7328 28.0404C22.7328 28.0404 22.7785 26.7149 21.773 25.2981C20.7675 23.8812 19.0709 23.6267 17.3396 22.5557L14.3687 20.8646V18.7164C15.9787 19.0428 16.8161 19.1602 17.6595 18.7164C18.5142 18.4637 19.1236 17.3026 20.4018 13.7345C21.2954 13.3747 21.5908 13.0516 21.773 12.272C21.7716 11.4494 20.7675 10.4437 20.4018 9.43822C20.0362 8.43269 20.7675 6.28453 20.7675 6.28453C20.269 2.2177 18.7556 1.16852 15.1914 0.159979C8.00882 -0.578506 5.97673 1.20219 4.08493 6.28453C0.71465 6.80072 -0.708057 8.88328 0.337072 11.952C1.45087 14.3505 2.87885 14.895 6.91868 14.3744C5.02711 22.2236 4.09588 26.9313 8.38126 35.1248L5.36469 46.2769Z" fill="#D9D9D9"/>
</mask>
<g mask="url(#mask0_5_134)">
<circle cx="16.5" cy="24.9" r="25.5" fill="url(#paint0_linear_5_134)"/>
</g>
<defs>
<linearGradient id="paint0_linear_5_134" x1="9.16875" y1="-0.599999" x2="27.3375" y2="48.4875" gradientUnits="userSpaceOnUse">
<stop stop-color="#0093E9"/>
<stop offset="1" stop-color="#80D0C7"/>
</linearGradient>
</defs>
</svg>
