<svg width="93" height="61" viewBox="0 0 93 61" fill="none" xmlns="http://www.w3.org/2000/svg">
<mask id="mask0_11_115" style="mask-type:alpha" maskUnits="userSpaceOnUse" x="0" y="0" width="93" height="61">
<path d="M5.5 30L1 26.5L18.5 1.5L22.5 5L5.5 30Z" fill="#D9D9D9"/>
<path d="M87.5 30L70.5 4.5L75 1L92 26.5L87.5 30Z" fill="#D9D9D9"/>
<path d="M14 35.5L9 29L22.5 9C25.851 10.5888 27.9801 11.3794 32.5 12.5C30.001 15.5685 28.5737 17.8416 26 22.5C27.7695 24.7117 29.4427 25.5269 34 26C38.6176 24.8552 40.5076 23.3303 43 19.5L52 20L75.5 36.5C76.3468 40.3526 75.5695 41.4361 72 41.5L56.5 31.5C54.2911 31.305 54.1386 31.938 54.5 33.5L70.5 44C70.7844 48.6084 69.7465 49.8768 65.5 49.5L52 40.5C50.2808 39.9656 50.0775 40.549 50.5 42.5L62 50.5C62.7937 55.1456 61.5306 55.9473 57.5 55.5L47 48.5C45.2978 48.5479 45.0157 48.9501 46 50.5L54.5 56C54.7872 57.6408 54.7289 58.5353 53.5 60C52.5982 60.4949 51.7751 60.5341 49.5 60L43.5 56C45.3939 51.4162 44.6649 49.6026 39.5 48C39.8516 42.754 38.6458 41.1136 34 40.5C33.9129 34.1004 29.172 33.361 25.5 35.5C21.669 30.3466 19.1581 30.2388 14 35.5Z" fill="#D9D9D9"/>
<path d="M83.5 29.5L76.5 34C67.7791 27.3477 62.5728 23.7194 52.5 17.5H42.5L42.437 17.5559C38.2855 21.2431 35.9385 23.3276 32.5 23.5C31.1687 23.5564 30.4157 23.4694 29 22C31.0923 17.4766 32.6097 15.2749 36.5 12.5L51 8.5H53.5L60 10H71L83.5 29.5Z" fill="#D9D9D9"/>
<path d="M17.5 45.5C14.179 45.9982 12.5677 45.9472 13 41.5L18.5 34.5C19.7375 33.7293 20.4866 33.6271 22 34.5C23.3191 35.5266 23.5671 36.3854 23 38.5L17.5 45.5Z" fill="#D9D9D9"/>
<path d="M31 38C30.5366 37.0345 29.9709 36.6573 28 36.5L18.5 48.5C18.5738 50.2519 18.7513 50.9849 19.5 51.5C20.4571 52.247 21.219 52.3625 23 52L32 41C31.9212 39.9566 31.6923 39.2955 31 38Z" fill="#D9D9D9"/>
<path d="M36.5 44C35.6069 43.3794 34.9442 43.279 33.5 43.5L26 52C25.4303 53.5621 25.4563 54.4379 26 56C27.5034 56.7894 28.3643 57.05 30 56.5L37.5 48C37.615 45.889 37.3694 45.0421 36.5 44Z" fill="#D9D9D9"/>
<path d="M41.5 52C41.3579 51.1078 40.6037 50.8553 39 50.5C39 50.5 34.5 53 34 55.5C33.5 58 34.0059 57.8973 34 58.5C34.9147 59.293 35.6368 59.5513 37.5 59.5L41.5 55C42.0988 53.0823 42.0132 52.5321 41.5 52Z" fill="#D9D9D9"/>
<path d="M5.5 30L1 26.5L18.5 1.5L22.5 5L5.5 30Z" stroke="#5C5C5C" stroke-linecap="round" stroke-linejoin="round"/>
<path d="M87.5 30L70.5 4.5L75 1L92 26.5L87.5 30Z" stroke="#5C5C5C" stroke-linecap="round" stroke-linejoin="round"/>
<path d="M14 35.5L9 29L22.5 9C25.851 10.5888 27.9801 11.3794 32.5 12.5C30.001 15.5685 28.5737 17.8416 26 22.5C27.7695 24.7117 29.4427 25.5269 34 26C38.6176 24.8552 40.5076 23.3303 43 19.5L52 20L75.5 36.5C76.3468 40.3526 75.5695 41.4361 72 41.5L56.5 31.5C54.2911 31.305 54.1386 31.938 54.5 33.5L70.5 44C70.7844 48.6084 69.7465 49.8768 65.5 49.5L52 40.5C50.2808 39.9656 50.0775 40.549 50.5 42.5L62 50.5C62.7937 55.1456 61.5306 55.9473 57.5 55.5L47 48.5C45.2978 48.5479 45.0157 48.9501 46 50.5L54.5 56C54.7872 57.6408 54.7289 58.5353 53.5 60C52.5982 60.4949 51.7751 60.5341 49.5 60L43.5 56C45.3939 51.4162 44.6649 49.6026 39.5 48C39.8516 42.754 38.6458 41.1136 34 40.5C33.9129 34.1004 29.172 33.361 25.5 35.5C21.669 30.3466 19.1581 30.2388 14 35.5Z" stroke="#5C5C5C" stroke-linecap="round" stroke-linejoin="round"/>
<path d="M83.5 29.5L76.5 34C67.7791 27.3477 62.5728 23.7194 52.5 17.5H42.5L42.437 17.5559C38.2855 21.2431 35.9385 23.3276 32.5 23.5C31.1687 23.5564 30.4157 23.4694 29 22C31.0923 17.4766 32.6097 15.2749 36.5 12.5L51 8.5H53.5L60 10H71L83.5 29.5Z" stroke="#5C5C5C" stroke-linecap="round" stroke-linejoin="round"/>
<path d="M17.5 45.5C14.179 45.9982 12.5677 45.9472 13 41.5L18.5 34.5C19.7375 33.7293 20.4866 33.6271 22 34.5C23.3191 35.5266 23.5671 36.3854 23 38.5L17.5 45.5Z" stroke="#5C5C5C" stroke-linecap="round" stroke-linejoin="round"/>
<path d="M31 38C30.5366 37.0345 29.9709 36.6573 28 36.5L18.5 48.5C18.5738 50.2519 18.7513 50.9849 19.5 51.5C20.4571 52.247 21.219 52.3625 23 52L32 41C31.9212 39.9566 31.6923 39.2955 31 38Z" stroke="#5C5C5C" stroke-linecap="round" stroke-linejoin="round"/>
<path d="M36.5 44C35.6069 43.3794 34.9442 43.279 33.5 43.5L26 52C25.4303 53.5621 25.4563 54.4379 26 56C27.5034 56.7894 28.3643 57.05 30 56.5L37.5 48C37.615 45.889 37.3694 45.0421 36.5 44Z" stroke="#5C5C5C" stroke-linecap="round" stroke-linejoin="round"/>
<path d="M41.5 52C41.3579 51.1078 40.6037 50.8553 39 50.5C39 50.5 34.5 53 34 55.5C33.5 58 34.0059 57.8973 34 58.5C34.9147 59.293 35.6368 59.5513 37.5 59.5L41.5 55C42.0988 53.0823 42.0132 52.5321 41.5 52Z" stroke="#5C5C5C" stroke-linecap="round" stroke-linejoin="round"/>
</mask>
<g mask="url(#mask0_11_115)">
<circle cx="45.5" cy="26.5" r="49.5" fill="url(#paint0_linear_11_115)"/>
</g>
<defs>
<linearGradient id="paint0_linear_11_115" x1="31.2688" y1="-23" x2="66.5375" y2="72.2875" gradientUnits="userSpaceOnUse">
<stop stop-color="#0093E9"/>
<stop offset="1" stop-color="#80D0C7"/>
</linearGradient>
</defs>
</svg>
