<svg width="50" height="36" viewBox="0 0 50 36" fill="none" xmlns="http://www.w3.org/2000/svg">
<path fill-rule="evenodd" clip-rule="evenodd" d="M45 0C45.7661 0 46.492 0.172302 47.141 0.480286C44.1814 3.55548 41.0434 6.99005 38.0787 10.235L38.0784 10.2354L38.0703 10.2443L38.0665 10.2484C36.3214 12.1584 34.6366 14.0025 33.0836 15.6685C30.8009 18.1176 28.8099 20.1752 27.3059 21.5302C26.547 22.2138 25.955 22.679 25.5367 22.9291C25.4459 22.9835 25.3714 23.0226 25.3122 23.05C25.2187 23.0193 25.1211 23.0025 25.0228 23.0002L25.0194 22.9977C24.6866 22.7464 24.1642 22.2853 23.4637 21.6226C22.0756 20.3095 20.1011 18.3137 17.7749 15.9191C15.9415 14.0317 13.8904 11.8974 11.7466 9.66656C8.8533 6.65582 5.79104 3.4693 2.86672 0.476624C3.51376 0.170959 4.23691 0 5 0H45ZM0 5C0 3.72974 0.473717 2.57007 1.25412 1.68805C4.22806 4.72925 7.34014 7.96765 10.2854 11.0325L10.2872 11.0344L10.2903 11.0377L10.3092 11.0574C12.4469 13.2817 14.4962 15.4142 16.3404 17.3126C17.2023 18.2 18.0197 19.0364 18.7796 19.8062L3.00128 35.5845C1.2347 34.8133 0 33.0508 0 31V5ZM5.4142 36H44.6859L30.4143 21.332C29.7758 21.965 29.1828 22.5311 28.6445 23.0161C27.8635 23.7197 27.1543 24.2921 26.5632 24.6456C26.2736 24.8188 25.9469 24.9799 25.6123 25.0506C25.4586 25.0831 25.2645 25.1029 25.0581 25.0765C24.7899 25.1075 24.5765 25.0308 24.5122 25.0075C24.2573 24.9154 24.0048 24.7377 23.8143 24.5939C23.3856 24.2701 22.794 23.7422 22.0893 23.0756C21.5382 22.5543 20.9002 21.9311 20.1901 21.2241L5.4142 36ZM31.8197 19.9086L47.0499 35.5618C48.7891 34.7791 50 33.0309 50 31V5C50 3.73193 49.528 2.57416 48.75 1.69275C45.7633 4.789 42.6005 8.25098 39.5925 11.5436L39.5855 11.5513L39.5596 11.5797C37.8145 13.4896 36.122 15.3422 34.5467 17.0322C33.5901 18.0585 32.6755 19.0261 31.8197 19.9086Z" fill="#5C5C5C"/>
</svg>
