<svg width="16" height="16" viewBox="0 0 16 16" fill="none" xmlns="http://www.w3.org/2000/svg">
<path fill-rule="evenodd" clip-rule="evenodd" d="M7.7059 15C11.848 15 15.2059 11.6421 15.2059 7.5C15.2059 3.35786 11.848 0 7.7059 0C3.56377 0 0.205905 3.35786 0.205905 7.5C0.205905 8.76933 0.521236 9.96502 1.07784 11.013L0 15.0355L3.93107 13.9822C5.03982 14.6293 6.32957 15 7.7059 15Z" fill="white"/>
<mask id="mask0_16_36" style="mask-type:alpha" maskUnits="userSpaceOnUse" x="1" y="1" width="13" height="13">
<path fill-rule="evenodd" clip-rule="evenodd" d="M14 7.41198C14 10.9532 11.1293 13.824 7.58802 13.824C6.41135 13.824 5.30871 13.507 4.36082 12.9538L1 13.8544L1.92148 10.4154C1.44562 9.51941 1.17604 8.49718 1.17604 7.41198C1.17604 3.87074 4.04678 1 7.58802 1C11.1293 1 14 3.87074 14 7.41198ZM4.93333 4H5.4L6.33333 5.86667L5.86667 6.33333C6.54854 7.56819 7.10191 8.01945 8.2 8.66667L9.13333 7.73333L11 8.66667C10.634 9.95178 10.1929 10.4329 8.2 10.0667C6.79725 9.29043 5.9825 8.60007 4.46667 6.8C4.22414 6.19453 4.10663 5.81662 4 4.93333L4.93333 4Z" fill="#D9D9D9"/>
</mask>
<g mask="url(#mask0_16_36)">
<circle cx="7.5" cy="7.5" r="42.5" fill="url(#paint0_linear_16_36)"/>
</g>
<defs>
<linearGradient id="paint0_linear_16_36" x1="-4.71875" y1="-35" x2="25.5625" y2="46.8125" gradientUnits="userSpaceOnUse">
<stop stop-color="#0093E9"/>
<stop offset="1" stop-color="#80D0C7"/>
</linearGradient>
</defs>
</svg>
